ffmpeg version 4.4.2-0ubuntu0.22.04.1 Copyright (c) 2000-2021 the FFmpeg developers
  built with gcc 11 (Ubuntu 11.2.0-19ubuntu1)
  configuration: --prefix=/usr --extra-version=0ubuntu0.22.04.1 --toolchain=hardened --libdir=/usr/lib/x86_64-linux-gnu --incdir=/usr/include/x86_64-linux-gnu --arch=amd64 --enable-gpl --disable-stripping --enable-gnutls --enable-ladspa --enable-libaom --enable-libass --enable-libbluray --enable-libbs2b --enable-libcaca --enable-libcdio --enable-libcodec2 --enable-libdav1d --enable-libflite --enable-libfontconfig --enable-libfreetype --enable-libfribidi --enable-libgme --enable-libgsm --enable-libjack --enable-libmp3lame --enable-libmysofa --enable-libopenjpeg --enable-libopenmpt --enable-libopus --enable-libpulse --enable-librabbitmq --enable-librubberband --enable-libshine --enable-libsnappy --enable-libsoxr --enable-libspeex --enable-libsrt --enable-libssh --enable-libtheora --enable-libtwolame --enable-libvidstab --enable-libvorbis --enable-libvpx --enable-libwebp --enable-libx265 --enable-libxml2 --enable-libxvid --enable-libzimg --enable-libzmq --enable-libzvbi --enable-lv2 --enable-omx --enable-openal --enable-opencl --enable-opengl --enable-sdl2 --enable-pocketsphinx --enable-librsvg --enable-libmfx --enable-libdc1394 --enable-libdrm --enable-libiec61883 --enable-chromaprint --enable-frei0r --enable-libx264 --enable-shared
  libavutil      56. 70.100 / 56. 70.100
  libavcodec     58.134.100 / 58.134.100
  libavformat    58. 76.100 / 58. 76.100
  libavdevice    58. 13.100 / 58. 13.100
  libavfilter     7.110.100 /  7.110.100
  libswscale      5.  9.100 /  5.  9.100
  libswresample   3.  9.100 /  3.  9.100
  libpostproc    55.  9.100 / 55.  9.100
Input #0, lavfi, from 'testsrc=size=640x480:rate=30':
  Duration: N/A, start: 0.000000, bitrate: N/A
  Stream #0:0: Video: rawvideo (RGB[24] / 0x18424752), rgb24, 640x480 [SAR 1:1 DAR 4:3], 30 tbr, 30 tbn, 30 tbc
Stream mapping:
  Stream #0:0 -> #0:0 (rawvideo (native) -> h264 (libx264))
Press [q] to stop, [?] for help
[libx264 @ 0x564eaf783640] using SAR=1/1
[libx264 @ 0x564eaf783640] using cpu capabilities: MMX2 SSE2Fast SSSE3 SSE4.2 AVX FMA3 BMI2 AVX2 AVX512
[libx264 @ 0x564eaf783640] profile High 4:4:4 Predictive, level 3.0, 4:4:4, 8-bit
[libx264 @ 0x564eaf783640] 264 - core 163 r3060 5db6aa6 - H.264/MPEG-4 AVC codec - Copyleft 2003-2021 - http://www.videolan.org/x264.html - options: cabac=1 ref=3 deblock=1:0:0 analyse=0x3:0x113 me=hex subme=7 psy=1 psy_rd=1.00:0.00 mixed_ref=1 me_range=16 chroma_me=1 trellis=1 8x8dct=1 cqm=0 deadzone=21,11 fast_pskip=1 chroma_qp_offset=4 threads=15 lookahead_threads=2 sliced_threads=0 nr=0 decimate=1 interlaced=0 bluray_compat=0 constrained_intra=0 bframes=3 b_pyramid=2 b_adapt=1 b_bias=0 direct=1 weightb=1 open_gop=0 weightp=2 keyint=250 keyint_min=25 scenecut=40 intra_refresh=0 rc_lookahead=40 rc=crf mbtree=1 crf=23.0 qcomp=0.60 qpmin=0 qpmax=69 qpstep=4 ip_ratio=1.40 aq=1:1.00
Output #0, flv, to 'rtmp://localhost:1935/live/test?user=wowza':
  Metadata:
    encoder         : Lavf58.76.100
  Stream #0:0: Video: h264 ([7][0][0][0] / 0x0007), yuv444p(tv, progressive), 640x480 [SAR 1:1 DAR 4:3], q=2-31, 30 fps, 1k tbn
    Metadata:
      encoder         : Lavc58.134.100 libx264
    Side data:
      cpb: bitrate max/min/avg: 0/0/0 buffer size: 0 vbv_delay: N/A
frame=    1 fps=0.0 q=0.0 size=       0kB time=00:00:00.00 bitrate=N/A speed=   0x    frame=   16 fps=0.0 q=0.0 size=       0kB time=00:00:00.00 bitrate=N/A speed=   0x    frame=   31 fps= 31 q=0.0 size=       0kB time=00:00:00.00 bitrate=N/A speed=   0x    frame=   46 fps= 30 q=0.0 size=       0kB time=00:00:00.00 bitrate=N/A speed=   0x    frame=   61 fps= 30 q=29.0 size=       7kB time=-00:00:00.03 bitrate=N/A speed=N/A    frame=   77 fps= 30 q=29.0 size=      10kB time=00:00:00.50 bitrate= 157.0kbits/s speed=0.198x    frame=   92 fps= 30 q=29.0 size=      12kB time=00:00:01.00 bitrate=  96.8kbits/s speed=0.329x    frame=  107 fps= 30 q=29.0 size=      15kB time=00:00:01.50 bitrate=  79.5kbits/s speed=0.424x    frame=  122 fps= 30 q=29.0 size=      17kB time=00:00:02.00 bitrate=  71.5kbits/s speed=0.495x    frame=  137 fps= 30 q=29.0 size=      20kB time=00:00:02.50 bitrate=  66.1kbits/s speed=0.55x    frame=  152 fps= 30 q=29.0 size=      23kB time=00:00:03.00 bitrate=  61.4kbits/s speed=0.594x    frame=  167 fps= 30 q=29.0 size=      25kB time=00:00:03.50 bitrate=  58.9kbits/s speed=0.63x    frame=  182 fps= 30 q=29.0 size=      28kB time=00:00:04.00 bitrate=  57.2kbits/s speed=0.66x    frame=  197 fps= 30 q=29.0 size=      30kB time=00:00:04.50 bitrate=  55.4kbits/s speed=0.686x    frame=  212 fps= 30 q=29.0 size=      33kB time=00:00:05.00 bitrate=  53.8kbits/s speed=0.708x    frame=  227 fps= 30 q=29.0 size=      36kB time=00:00:05.50 bitrate=  53.0kbits/s speed=0.727x    frame=  242 fps= 30 q=29.0 size=      38kB time=00:00:06.00 bitrate=  52.2kbits/s speed=0.744x    frame=  258 fps= 30 q=29.0 size=      41kB time=00:00:06.53 bitrate=  51.4kbits/s speed=0.762x    frame=  273 fps= 30 q=29.0 size=      44kB time=00:00:07.03 bitrate=  50.9kbits/s speed=0.775x    frame=  288 fps= 30 q=29.0 size=      46kB time=00:00:07.53 bitrate=  50.0kbits/s speed=0.787x    frame=  303 fps= 30 q=29.0 size=      49kB time=00:00:08.03 bitrate=  49.8kbits/s speed=0.797x    frame=  318 fps= 30 q=29.0 size=      57kB time=00:00:08.53 bitrate=  54.7kbits/s speed=0.806x    frame=  333 fps= 30 q=29.0 size=      60kB time=00:00:09.03 bitrate=  54.0kbits/s speed=0.814x    frame=  349 fps= 30 q=29.0 size=      62kB time=00:00:09.56 bitrate=  53.2kbits/s speed=0.825x    frame=  364 fps= 30 q=29.0 size=      65kB time=00:00:10.06 bitrate=  52.7kbits/s speed=0.832x    frame=  379 fps= 30 q=29.0 size=      67kB time=00:00:10.56 bitrate=  52.1kbits/s speed=0.838x    frame=  394 fps= 30 q=29.0 size=      69kB time=00:00:11.06 bitrate=  51.4kbits/s speed=0.845x    frame=  409 fps= 30 q=29.0 size=      72kB time=00:00:11.56 bitrate=  51.1kbits/s speed=0.85x    frame=  424 fps= 30 q=29.0 size=      75kB time=00:00:12.06 bitrate=  50.8kbits/s speed=0.855x    frame=  439 fps= 30 q=29.0 size=      77kB time=00:00:12.56 bitrate=  50.4kbits/s speed=0.86x    frame=  454 fps= 30 q=29.0 size=      80kB time=00:00:13.06 bitrate=  49.9kbits/s speed=0.864x    frame=  469 fps= 30 q=29.0 size=      82kB time=00:00:13.56 bitrate=  49.7kbits/s speed=0.869x    frame=  484 fps= 30 q=29.0 size=      85kB time=00:00:14.06 bitrate=  49.5kbits/s speed=0.872x    frame=  499 fps= 30 q=29.0 size=      88kB time=00:00:14.56 bitrate=  49.3kbits/s speed=0.876x    frame=  514 fps= 30 q=29.0 size=      90kB time=00:00:15.06 bitrate=  48.9kbits/s speed=0.88x    frame=  530 fps= 30 q=29.0 size=      93kB time=00:00:15.60 bitrate=  48.6kbits/s speed=0.884x    frame=  545 fps= 30 q=29.0 size=      95kB time=00:00:16.10 bitrate=  48.4kbits/s speed=0.887x    frame=  560 fps= 30 q=29.0 size=     103kB time=00:00:16.60 bitrate=  50.8kbits/s speed=0.89x    frame=  575 fps= 30 q=29.0 size=     106kB time=00:00:17.10 bitrate=  50.8kbits/s speed=0.893x    frame=  590 fps= 30 q=29.0 size=     109kB time=00:00:17.60 bitrate=  50.6kbits/s speed=0.896x    frame=  605 fps= 30 q=29.0 size=     111kB time=00:00:18.10 bitrate=  50.5kbits/s speed=0.898x    frame=  620 fps= 30 q=29.0 size=     114kB time=00:00:18.60 bitrate=  50.1kbits/s speed=0.901x    frame=  635 fps= 30 q=29.0 size=     116kB time=00:00:19.10 bitrate=  49.8kbits/s speed=0.903x    frame=  650 fps= 30 q=29.0 size=     119kB time=00:00:19.60 bitrate=  49.7kbits/s speed=0.905x    frame=  665 fps= 30 q=29.0 size=     122kB time=00:00:20.10 bitrate=  49.6kbits/s speed=0.907x    frame=  681 fps= 30 q=29.0 size=     125kB time=00:00:20.63 bitrate=  49.4kbits/s speed=0.91x    frame=  696 fps= 30 q=29.0 size=     127kB time=00:00:21.13 bitrate=  49.1kbits/s speed=0.912x    frame=  711 fps= 30 q=29.0 size=     129kB time=00:00:21.63 bitrate=  49.0kbits/s speed=0.914x    frame=  726 fps= 30 q=29.0 size=     132kB time=00:00:22.13 bitrate=  48.9kbits/s speed=0.916x    frame=  741 fps= 30 q=29.0 size=     135kB time=00:00:22.63 bitrate=  48.7kbits/s speed=0.917x    frame=  756 fps= 30 q=29.0 size=     137kB time=00:00:23.13 bitrate=  48.5kbits/s speed=0.919x    frame=  771 fps= 30 q=29.0 size=     140kB time=00:00:23.63 bitrate=  48.4kbits/s speed=0.92x    frame=  786 fps= 30 q=29.0 size=     143kB time=00:00:24.13 bitrate=  48.4kbits/s speed=0.921x    frame=  801 fps= 30 q=29.0 size=     145kB time=00:00:24.63 bitrate=  48.2kbits/s speed=0.923x    frame=  817 fps= 30 q=29.0 size=     153kB time=00:00:25.16 bitrate=  49.9kbits/s speed=0.925x    frame=  832 fps= 30 q=29.0 size=     156kB time=00:00:25.66 bitrate=  49.7kbits/s speed=0.926x    frame=  847 fps= 30 q=29.0 size=     158kB time=00:00:26.16 bitrate=  49.6kbits/s speed=0.928x    frame=  862 fps= 30 q=29.0 size=     161kB time=00:00:26.66 bitrate=  49.3kbits/s speed=0.929x    frame=  877 fps= 30 q=29.0 size=     163kB time=00:00:27.16 bitrate=  49.2kbits/s speed=0.93x    frame=  892 fps= 30 q=29.0 size=     166kB time=00:00:27.66 bitrate=  49.1kbits/s speed=0.931x    frame=  907 fps= 30 q=29.0 size=     168kB time=00:00:28.16 bitrate=  48.9kbits/s speed=0.932x    frame=  923 fps= 30 q=29.0 size=     171kB time=00:00:28.70 bitrate=  48.7kbits/s speed=0.934x    frame=  938 fps= 30 q=29.0 size=     173kB time=00:00:29.20 bitrate=  48.6kbits/s speed=0.935x    frame=  953 fps= 30 q=29.0 size=     176kB time=00:00:29.70 bitrate=  48.5kbits/s speed=0.936x    frame=  968 fps= 30 q=29.0 size=     179kB time=00:00:30.20 bitrate=  48.5kbits/s speed=0.937x    frame=  983 fps= 30 q=29.0 size=     181kB time=00:00:30.70 bitrate=  48.3kbits/s speed=0.937x    frame=  998 fps= 30 q=29.0 size=     183kB time=00:00:31.20 bitrate=  48.1kbits/s speed=0.938x    frame= 1013 fps= 30 q=29.0 size=     186kB time=00:00:31.70 bitrate=  48.0kbits/s speed=0.939x    frame= 1028 fps= 30 q=29.0 size=     188kB time=00:00:32.20 bitrate=  47.9kbits/s speed=0.94x    frame= 1044 fps= 30 q=29.0 size=     191kB time=00:00:32.73 bitrate=  47.8kbits/s speed=0.942x    frame= 1059 fps= 30 q=29.0 size=     193kB time=00:00:33.23 bitrate=  47.7kbits/s speed=0.942x    frame= 1074 fps= 30 q=29.0 size=     202kB time=00:00:33.73 bitrate=  49.0kbits/s speed=0.943x    frame= 1089 fps= 30 q=29.0 size=     204kB time=00:00:34.23 bitrate=  48.9kbits/s speed=0.944x    frame= 1104 fps= 30 q=29.0 size=     207kB time=00:00:34.73 bitrate=  48.7kbits/s speed=0.944x    frame= 1119 fps= 30 q=29.0 size=     209kB time=00:00:35.23 bitrate=  48.7kbits/s speed=0.945x    frame= 1134 fps= 30 q=29.0 size=     212kB time=00:00:35.73 bitrate=  48.6kbits/s speed=0.946x    frame= 1149 fps= 30 q=29.0 size=     214kB time=00:00:36.23 bitrate=  48.5kbits/s speed=0.946x    frame= 1165 fps= 30 q=29.0 size=     217kB time=00:00:36.76 bitrate=  48.3kbits/s speed=0.948x    frame= 1180 fps= 30 q=29.0 size=     219kB time=00:00:37.26 bitrate=  48.2kbits/s speed=0.948x    frame= 1195 fps= 30 q=29.0 size=     222kB time=00:00:37.76 bitrate=  48.1kbits/s speed=0.949x    frame= 1210 fps= 30 q=29.0 size=     225kB time=00:00:38.26 bitrate=  48.1kbits/s speed=0.949x    frame= 1225 fps= 30 q=29.0 size=     227kB time=00:00:38.76 bitrate=  48.0kbits/s speed=0.95x    frame= 1241 fps= 30 q=29.0 size=     230kB time=00:00:39.30 bitrate=  47.9kbits/s speed=0.951x    frame= 1256 fps= 30 q=29.0 size=     232kB time=00:00:39.80 bitrate=  47.8kbits/s speed=0.951x    frame= 1271 fps= 30 q=29.0 size=     235kB time=00:00:40.30 bitrate=  47.7kbits/s speed=0.952x    frame= 1286 fps= 30 q=29.0 size=     237kB time=00:00:40.80 bitrate=  47.6kbits/s speed=0.952x    frame= 1301 fps= 30 q=29.0 size=     240kB time=00:00:41.30 bitrate=  47.6kbits/s speed=0.953x    frame= 1316 fps= 30 q=29.0 size=     248kB time=00:00:41.80 bitrate=  48.6kbits/s speed=0.953x    frame= 1331 fps= 30 q=29.0 size=     251kB time=00:00:42.30 bitrate=  48.6kbits/s speed=0.954x    frame= 1347 fps= 30 q=29.0 size=     253kB time=00:00:42.83 bitrate=  48.5kbits/s speed=0.955x    frame= 1362 fps= 30 q=29.0 size=     256kB time=00:00:43.33 bitrate=  48.3kbits/s speed=0.955x    frame= 1377 fps= 30 q=29.0 size=     258kB time=00:00:43.83 bitrate=  48.3kbits/s speed=0.956x    frame= 1392 fps= 30 q=29.0 size=     261kB time=00:00:44.33 bitrate=  48.2kbits/s speed=0.956x    frame= 1407 fps= 30 q=29.0 size=     264kB time=00:00:44.83 bitrate=  48.2kbits/s speed=0.956x    frame= 1422 fps= 30 q=29.0 size=     266kB time=00:00:45.33 bitrate=  48.0kbits/s speed=0.957x    frame= 1437 fps= 30 q=29.0 size=     268kB time=00:00:45.83 bitrate=  48.0kbits/s speed=0.957x    frame= 1452 fps= 30 q=29.0 size=     271kB time=00:00:46.33 bitrate=  47.9kbits/s speed=0.957x    frame= 1468 fps= 30 q=29.0 size=     273kB time=00:00:46.86 bitrate=  47.8kbits/s speed=0.958x    frame= 1483 fps= 30 q=29.0 size=     276kB time=00:00:47.36 bitrate=  47.7kbits/s speed=0.959x    frame= 1498 fps= 30 q=29.0 size=     278kB time=00:00:47.86 bitrate=  47.6kbits/s speed=0.959x    frame= 1513 fps= 30 q=29.0 size=     281kB time=00:00:48.36 bitrate=  47.6kbits/s speed=0.959x    frame= 1528 fps= 30 q=29.0 size=     284kB time=00:00:48.86 bitrate=  47.5kbits/s speed=0.96x    frame= 1543 fps= 30 q=29.0 size=     286kB time=00:00:49.36 bitrate=  47.5kbits/s speed=0.96x    frame= 1558 fps= 30 q=29.0 size=     288kB time=00:00:49.86 bitrate=  47.4kbits/s speed=0.96x    frame= 1573 fps= 30 q=29.0 size=     297kB time=00:00:50.36 bitrate=  48.3kbits/s speed=0.961x    frame= 1588 fps= 30 q=29.0 size=     299kB time=00:00:50.86 bitrate=  48.2kbits/s speed=0.961x    frame= 1603 fps= 30 q=29.0 size=     302kB time=00:00:51.36 bitrate=  48.2kbits/s speed=0.961x    frame= 1619 fps= 30 q=29.0 size=     305kB time=00:00:51.90 bitrate=  48.1kbits/s speed=0.962x    frame= 1634 fps= 30 q=29.0 size=     307kB time=00:00:52.40 bitrate=  48.0kbits/s speed=0.963x    av_interleaved_write_frame(): Broken pipe
frame= 1649 fps= 30 q=29.0 size=     309kB time=00:00:52.90 bitrate=  47.9kbits/s speed=0.963x    [flv @ 0x564eaf782200] Failed to update header with correct duration.
[flv @ 0x564eaf782200] Failed to update header with correct filesize.
Error writing trailer of rtmp://localhost:1935/live/test?user=wowza: Broken pipe
frame= 1649 fps= 30 q=29.0 Lsize=     309kB time=00:00:52.90 bitrate=  47.9kbits/s speed=0.961x    
video:278kB audio:0kB subtitle:0kB other streams:0kB global headers:0kB muxing overhead: 11.090457%
[libx264 @ 0x564eaf783640] frame I:7     Avg QP:12.67  size:  5688
[libx264 @ 0x564eaf783640] frame P:415   Avg QP:13.35  size:   417
[libx264 @ 0x564eaf783640] frame B:1227  Avg QP:14.25  size:    66
[libx264 @ 0x564eaf783640] consecutive B-frames:  0.8%  0.0%  0.0% 99.2%
[libx264 @ 0x564eaf783640] mb I  I16..4: 59.2% 28.9% 11.9%
[libx264 @ 0x564eaf783640] mb P  I16..4:  2.2%  1.1%  0.4%  P16..4:  3.9%  2.2%  0.1%  0.0%  0.0%    skip:90.1%
[libx264 @ 0x564eaf783640] mb B  I16..4:  0.1%  0.1%  0.0%  B16..8:  1.9%  0.0%  0.0%  direct: 0.0%  skip:97.9%  L0:44.4% L1:53.9% BI: 1.7%
[libx264 @ 0x564eaf783640] 8x8 transform intra:31.6% inter:88.3%
[libx264 @ 0x564eaf783640] coded y,u,v intra: 4.3% 3.7% 3.5% inter: 0.1% 0.1% 0.1%
[libx264 @ 0x564eaf783640] i16 v,h,dc,p: 77% 15%  1%  7%
[libx264 @ 0x564eaf783640] i8 v,h,dc,ddl,ddr,vr,hd,vl,hu: 57% 22% 21%  0%  0%  0%  0%  0%  0%
[libx264 @ 0x564eaf783640] i4 v,h,dc,ddl,ddr,vr,hd,vl,hu: 32% 52% 12%  1%  0%  1%  0%  1%  0%
[libx264 @ 0x564eaf783640] Weighted P-Frames: Y:0.0% UV:0.0%
[libx264 @ 0x564eaf783640] ref P L0: 75.7%  2.6% 14.7%  7.0%
[libx264 @ 0x564eaf783640] ref B L0: 76.8% 22.3%  0.9%
[libx264 @ 0x564eaf783640] ref B L1: 96.8%  3.2%
[libx264 @ 0x564eaf783640] kb/s:42.69
Conversion failed!
